<svg width="713" height="898" viewBox="0 0 713 898" fill="none" xmlns="http://www.w3.org/2000/svg">
<path d="M173.28 212.667C179.911 219.974 205.561 231.417 255.118 218.736C317.063 202.883 391.297 210.515 359.518 281.162C327.739 351.81 112.789 516.749 171.566 598.611C230.343 680.474 540.324 520.044 687.444 553.865C776.657 569.105 747.324 673.742 737.48 688.719" stroke="url(#paint0_linear_1_152)" stroke-opacity="0.7" stroke-width="5"/>
<g filter="url(#filter0_b_1_152)">
<g filter="url(#filter1_b_1_152)">
<path d="M294.124 510.337C297.843 507.298 300 502.749 300 497.947L300 181C300 172.163 292.837 165 284 165L16 165C7.16345 165 0 172.163 0 181L0 558C0 566.837 7.16345 574 16 574H210.507C214.197 574 217.773 572.725 220.631 570.39L294.124 510.337Z" fill="#080B2A" fill-opacity="0.7"/>
<path d="M299.5 497.947C299.5 502.599 297.41 507.006 293.808 509.949L220.314 570.003C217.546 572.264 214.081 573.5 210.507 573.5H16C7.43961 573.5 0.5 566.56 0.5 558L0.5 181C0.5 172.44 7.43961 165.5 16 165.5L284 165.5C292.56 165.5 299.5 172.44 299.5 181L299.5 497.947Z" stroke="url(#paint1_linear_1_152)" stroke-opacity="0.7"/>
</g>
<path d="M17.722 193.83C18.618 193.055 19.3227 192.421 19.836 191.926C20.3587 191.422 20.7927 190.899 21.138 190.358C21.4833 189.817 21.656 189.275 21.656 188.734C21.656 188.174 21.5207 187.735 21.25 187.418C20.9887 187.101 20.5733 186.942 20.004 186.942C19.4533 186.942 19.024 187.119 18.716 187.474C18.4173 187.819 18.2587 188.286 18.24 188.874H16.7C16.728 187.81 17.0453 186.998 17.652 186.438C18.268 185.869 19.0473 185.584 19.99 185.584C21.0073 185.584 21.8007 185.864 22.37 186.424C22.9487 186.984 23.238 187.731 23.238 188.664C23.238 189.336 23.0653 189.985 22.72 190.61C22.384 191.226 21.978 191.781 21.502 192.276C21.0353 192.761 20.438 193.326 19.71 193.97L19.08 194.53H23.518V195.86H16.714V194.698L17.722 193.83ZM24.7101 187.25V185.794H27.6221V196H26.0121V187.25H24.7101ZM29.8146 190.764C29.8146 189.149 30.0853 187.889 30.6266 186.984C31.1773 186.069 32.1199 185.612 33.4546 185.612C34.7893 185.612 35.7273 186.069 36.2686 186.984C36.8193 187.889 37.0946 189.149 37.0946 190.764C37.0946 192.397 36.8193 193.676 36.2686 194.6C35.7273 195.515 34.7893 195.972 33.4546 195.972C32.1199 195.972 31.1773 195.515 30.6266 194.6C30.0853 193.676 29.8146 192.397 29.8146 190.764ZM35.5266 190.764C35.5266 190.008 35.4753 189.369 35.3726 188.846C35.2793 188.323 35.0833 187.899 34.7846 187.572C34.4859 187.236 34.0426 187.068 33.4546 187.068C32.8666 187.068 32.4233 187.236 32.1246 187.572C31.8259 187.899 31.6253 188.323 31.5226 188.846C31.4293 189.369 31.3826 190.008 31.3826 190.764C31.3826 191.548 31.4293 192.206 31.5226 192.738C31.6159 193.27 31.8119 193.699 32.1106 194.026C32.4186 194.353 32.8666 194.516 33.4546 194.516C34.0426 194.516 34.4859 194.353 34.7846 194.026C35.0926 193.699 35.2933 193.27 35.3866 192.738C35.4799 192.206 35.5266 191.548 35.5266 190.764ZM45.8081 186.27C46.8441 186.27 47.7494 186.471 48.5241 186.872C49.3081 187.264 49.9101 187.833 50.3301 188.58C50.7594 189.317 50.9741 190.181 50.9741 191.17C50.9741 192.159 50.7594 193.018 50.3301 193.746C49.9101 194.474 49.3081 195.034 48.5241 195.426C47.7494 195.809 46.8441 196 45.8081 196H42.6301V186.27H45.8081ZM45.8081 194.698C46.9467 194.698 47.8194 194.39 48.4261 193.774C49.0327 193.158 49.3361 192.29 49.3361 191.17C49.3361 190.041 49.0327 189.159 48.4261 188.524C47.8194 187.889 46.9467 187.572 45.8081 187.572H44.2261V194.698H45.8081ZM53.3679 187.264C53.0785 187.264 52.8359 187.166 52.6399 186.97C52.4439 186.774 52.3459 186.531 52.3459 186.242C52.3459 185.953 52.4439 185.71 52.6399 185.514C52.8359 185.318 53.0785 185.22 53.3679 185.22C53.6479 185.22 53.8859 185.318 54.0819 185.514C54.2779 185.71 54.3759 185.953 54.3759 186.242C54.3759 186.531 54.2779 186.774 54.0819 186.97C53.8859 187.166 53.6479 187.264 53.3679 187.264ZM54.1519 188.286V196H52.5559V188.286H54.1519ZM59.3553 188.16C59.9526 188.16 60.4799 188.281 60.9373 188.524C61.4039 188.757 61.7679 189.051 62.0293 189.406V188.286H63.6393V196.126C63.6393 196.835 63.4899 197.465 63.1913 198.016C62.8926 198.576 62.4586 199.015 61.8893 199.332C61.3293 199.649 60.6573 199.808 59.8733 199.808C58.8279 199.808 57.9599 199.561 57.2693 199.066C56.5786 198.581 56.1866 197.918 56.0933 197.078H57.6753C57.7966 197.479 58.0533 197.801 58.4453 198.044C58.8466 198.296 59.3226 198.422 59.8733 198.422C60.5173 198.422 61.0353 198.226 61.4273 197.834C61.8286 197.442 62.0293 196.873 62.0293 196.126V194.838C61.7586 195.202 61.3899 195.51 60.9233 195.762C60.4659 196.005 59.9433 196.126 59.3553 196.126C58.6833 196.126 58.0673 195.958 57.5073 195.622C56.9566 195.277 56.5179 194.801 56.1913 194.194C55.8739 193.578 55.7153 192.883 55.7153 192.108C55.7153 191.333 55.8739 190.647 56.1913 190.05C56.5179 189.453 56.9566 188.991 57.5073 188.664C58.0673 188.328 58.6833 188.16 59.3553 188.16ZM62.0293 192.136C62.0293 191.604 61.9173 191.142 61.6933 190.75C61.4786 190.358 61.1939 190.059 60.8393 189.854C60.4846 189.649 60.1019 189.546 59.6913 189.546C59.2806 189.546 58.8979 189.649 58.5433 189.854C58.1886 190.05 57.8993 190.344 57.6753 190.736C57.4606 191.119 57.3533 191.576 57.3533 192.108C57.3533 192.64 57.4606 193.107 57.6753 193.508C57.8993 193.909 58.1886 194.217 58.5433 194.432C58.9073 194.637 59.2899 194.74 59.6913 194.74C60.1019 194.74 60.4846 194.637 60.8393 194.432C61.1939 194.227 61.4786 193.928 61.6933 193.536C61.9173 193.135 62.0293 192.668 62.0293 192.136ZM66.5475 187.264C66.2582 187.264 66.0155 187.166 65.8195 186.97C65.6235 186.774 65.5255 186.531 65.5255 186.242C65.5255 185.953 65.6235 185.71 65.8195 185.514C66.0155 185.318 66.2582 185.22 66.5475 185.22C66.8275 185.22 67.0655 185.318 67.2615 185.514C67.4575 185.71 67.5555 185.953 67.5555 186.242C67.5555 186.531 67.4575 186.774 67.2615 186.97C67.0655 187.166 66.8275 187.264 66.5475 187.264ZM67.3315 188.286V196H65.7355V188.286H67.3315ZM71.289 189.588V193.858C71.289 194.147 71.3543 194.357 71.485 194.488C71.625 194.609 71.8583 194.67 72.185 194.67H73.165V196H71.905C71.1863 196 70.6356 195.832 70.253 195.496C69.8703 195.16 69.679 194.614 69.679 193.858V189.588H68.769V188.286H69.679V186.368H71.289V188.286H73.165V189.588H71.289ZM74.1039 192.108C74.1039 191.333 74.2626 190.647 74.5799 190.05C74.9066 189.453 75.3453 188.991 75.8959 188.664C76.4559 188.328 77.0719 188.16 77.7439 188.16C78.3506 188.16 78.8779 188.281 79.3259 188.524C79.7833 188.757 80.1473 189.051 80.4179 189.406V188.286H82.0279V196H80.4179V194.852C80.1473 195.216 79.7786 195.519 79.3119 195.762C78.8453 196.005 78.3133 196.126 77.7159 196.126C77.0533 196.126 76.4466 195.958 75.8959 195.622C75.3453 195.277 74.9066 194.801 74.5799 194.194C74.2626 193.578 74.1039 192.883 74.1039 192.108ZM80.4179 192.136C80.4179 191.604 80.3059 191.142 80.0819 190.75C79.8673 190.358 79.5826 190.059 79.2279 189.854C78.8733 189.649 78.4906 189.546 78.0799 189.546C77.6693 189.546 77.2866 189.649 76.9319 189.854C76.5773 190.05 76.2879 190.344 76.0639 190.736C75.8493 191.119 75.7419 191.576 75.7419 192.108C75.7419 192.64 75.8493 193.107 76.0639 193.508C76.2879 193.909 76.5773 194.217 76.9319 194.432C77.2959 194.637 77.6786 194.74 78.0799 194.74C78.4906 194.74 78.8733 194.637 79.2279 194.432C79.5826 194.227 79.8673 193.928 80.0819 193.536C80.3059 193.135 80.4179 192.668 80.4179 192.136ZM85.7202 185.64V196H84.1242V185.64H85.7202ZM97.3183 194.012H93.2443L92.5443 196H90.8783L94.3643 186.256H96.2123L99.6983 196H98.0183L97.3183 194.012ZM96.8703 192.71L95.2883 188.188L93.6923 192.71H96.8703ZM102.81 189.406C103.043 189.014 103.351 188.711 103.734 188.496C104.126 188.272 104.588 188.16 105.12 188.16V189.812H104.714C104.089 189.812 103.613 189.971 103.286 190.288C102.969 190.605 102.81 191.156 102.81 191.94V196H101.214V188.286H102.81V189.406ZM108.449 189.588V193.858C108.449 194.147 108.514 194.357 108.645 194.488C108.785 194.609 109.018 194.67 109.345 194.67H110.325V196H109.065C108.346 196 107.796 195.832 107.413 195.496C107.03 195.16 106.839 194.614 106.839 193.858V189.588H105.929V188.286H106.839V186.368H108.449V188.286H110.325V189.588H108.449ZM122.156 188.286L119.762 196H118.082L116.528 190.302L114.974 196H113.294L110.886 188.286H112.51L114.12 194.488L115.758 188.286H117.424L118.992 194.46L120.588 188.286H122.156ZM126.695 196.126C125.967 196.126 125.309 195.963 124.721 195.636C124.133 195.3 123.671 194.833 123.335 194.236C122.999 193.629 122.831 192.929 122.831 192.136C122.831 191.352 123.003 190.657 123.349 190.05C123.694 189.443 124.165 188.977 124.763 188.65C125.36 188.323 126.027 188.16 126.765 188.16C127.502 188.16 128.169 188.323 128.767 188.65C129.364 188.977 129.835 189.443 130.181 190.05C130.526 190.657 130.699 191.352 130.699 192.136C130.699 192.92 130.521 193.615 130.167 194.222C129.812 194.829 129.327 195.3 128.711 195.636C128.104 195.963 127.432 196.126 126.695 196.126ZM126.695 194.74C127.105 194.74 127.488 194.642 127.843 194.446C128.207 194.25 128.501 193.956 128.725 193.564C128.949 193.172 129.061 192.696 129.061 192.136C129.061 191.576 128.953 191.105 128.739 190.722C128.524 190.33 128.239 190.036 127.885 189.84C127.53 189.644 127.147 189.546 126.737 189.546C126.326 189.546 125.943 189.644 125.589 189.84C125.243 190.036 124.968 190.33 124.763 190.722C124.557 191.105 124.455 191.576 124.455 192.136C124.455 192.967 124.665 193.611 125.085 194.068C125.514 194.516 126.051 194.74 126.695 194.74ZM133.873 189.406C134.106 189.014 134.414 188.711 134.797 188.496C135.189 188.272 135.651 188.16 136.183 188.16V189.812H135.777C135.151 189.812 134.675 189.971 134.349 190.288C134.031 190.605 133.873 191.156 133.873 191.94V196H132.277V188.286H133.873V189.406ZM140.702 192.15L144.258 196H142.102L139.246 192.682V196H137.65V185.64H139.246V191.66L142.046 188.286H144.258L140.702 192.15Z" fill="white"/>
<g clip-path="url(#clip0_1_152)">
<path d="M24.0057 221.198L19.5653 219.03L24.0017 225L24.6682 224.103V220.874L24.0057 221.198Z" fill="#15BFFD"/>
<path d="M24.0017 209L18.9062 218.143H29.0973L24.0017 209Z" fill="#15BFFD"/>
<path d="M29.0973 218.156L24.0017 209V218.156H29.0973Z" fill="#1286B0"/>
<path d="M22.4602 214.078H23.4602V215.078H22.4602V214.078Z" fill="#F7F8FA"/>
<path d="M24.0017 215.66L23.9817 215.65L18.9067 218.15H18.9113L23.9862 220.65L24.0062 220.641L24.6682 220.317V215.986L24.0017 215.66Z" fill="#147EA5"/>
<path d="M22.4602 212.187H23.4602V213.187H22.4602V212.187Z" fill="#F7F8FA"/>
<path d="M24.0057 221.198L24.0017 225L28.4413 219.026L24.0057 221.198Z" fill="#1286B0"/>
<path d="M29.0878 218.15L24.0017 215.66L23.9817 215.65L23.9862 220.65L24.0062 220.641L29.0923 218.15H29.0878Z" fill="#0E526A"/>
</g>
<path d="M36.9269 214.408C36.9802 213.341 37.3535 212.52 38.0469 211.944C38.7509 211.357 39.6735 211.064 40.8149 211.064C41.5935 211.064 42.2602 211.203 42.8149 211.48C43.3695 211.747 43.7855 212.115 44.0629 212.584C44.3509 213.043 44.4949 213.565 44.4949 214.152C44.4949 214.824 44.3189 215.395 43.9669 215.864C43.6255 216.323 43.2149 216.632 42.7349 216.792V216.856C43.3535 217.048 43.8335 217.389 44.1749 217.88C44.5269 218.371 44.7029 219 44.7029 219.768C44.7029 220.408 44.5535 220.979 44.2549 221.48C43.9669 221.981 43.5349 222.376 42.9589 222.664C42.3935 222.941 41.7109 223.08 40.9109 223.08C39.7055 223.08 38.7242 222.776 37.9669 222.168C37.2095 221.56 36.8095 220.664 36.7669 219.48H38.9429C38.9642 220.003 39.1402 220.424 39.4709 220.744C39.8122 221.053 40.2762 221.208 40.8629 221.208C41.4069 221.208 41.8229 221.059 42.1109 220.76C42.4095 220.451 42.5589 220.056 42.5589 219.576C42.5589 218.936 42.3562 218.477 41.9509 218.2C41.5455 217.923 40.9162 217.784 40.0629 217.784H39.5989V215.944H40.0629C41.5775 215.944 42.3349 215.437 42.3349 214.424C42.3349 213.965 42.1962 213.608 41.9189 213.352C41.6522 213.096 41.2629 212.968 40.7509 212.968C40.2495 212.968 39.8602 213.107 39.5829 213.384C39.3162 213.651 39.1615 213.992 39.1189 214.408H36.9269ZM47.721 223.112C47.3157 223.112 46.9797 222.989 46.713 222.744C46.457 222.488 46.329 222.173 46.329 221.8C46.329 221.427 46.457 221.117 46.713 220.872C46.9797 220.616 47.3157 220.488 47.721 220.488C48.1157 220.488 48.441 220.616 48.697 220.872C48.953 221.117 49.081 221.427 49.081 221.8C49.081 222.173 48.953 222.488 48.697 222.744C48.441 222.989 48.1157 223.112 47.721 223.112ZM51.3333 220.472C52.3573 219.619 53.1733 218.909 53.7812 218.344C54.3893 217.768 54.8959 217.171 55.3013 216.552C55.7066 215.933 55.9093 215.325 55.9093 214.728C55.9093 214.184 55.7813 213.757 55.5253 213.448C55.2693 213.139 54.8746 212.984 54.3413 212.984C53.8079 212.984 53.3973 213.165 53.1093 213.528C52.8213 213.88 52.6719 214.365 52.6613 214.984H50.4853C50.5279 213.704 50.9066 212.733 51.6213 212.072C52.3466 211.411 53.2639 211.08 54.3733 211.08C55.5893 211.08 56.5226 211.405 57.1733 212.056C57.8239 212.696 58.1493 213.544 58.1493 214.6C58.1493 215.432 57.9253 216.227 57.4773 216.984C57.0293 217.741 56.5173 218.403 55.9413 218.968C55.3653 219.523 54.6133 220.195 53.6853 220.984H58.4053V222.84H50.5013V221.176L51.3333 220.472ZM66.1253 213.64V216.44H69.8853V218.216H66.1253V221.176H70.3653V223H63.8853V211.816H70.3653V213.64H66.1253ZM80.0009 211.832V213.64H77.0249V223H74.7849V213.64H71.8089V211.832H80.0009ZM90.8993 211.832V223H88.6593V218.248H83.8753V223H81.6353V211.832H83.8753V216.424H88.6593V211.832H90.8993Z" fill="#15BFFD"/>
<rect x="16" y="245" width="268" height="241" rx="5"/>
<path d="M25.248 512.08C24.96 511.525 24.56 511.109 24.048 510.832C23.536 510.544 22.944 510.4 22.272 510.4C21.536 510.4 20.88 510.565 20.304 510.896C19.728 511.227 19.2747 511.696 18.944 512.304C18.624 512.912 18.464 513.616 18.464 514.416C18.464 515.216 18.624 515.925 18.944 516.544C19.2747 517.152 19.728 517.621 20.304 517.952C20.88 518.283 21.536 518.448 22.272 518.448C23.264 518.448 24.0693 518.171 24.688 517.616C25.3067 517.061 25.6853 516.309 25.824 515.36H21.648V513.904H27.776V515.328C27.6587 516.192 27.3493 516.987 26.848 517.712C26.3573 518.437 25.712 519.019 24.912 519.456C24.1227 519.883 23.2427 520.096 22.272 520.096C21.2267 520.096 20.272 519.856 19.408 519.376C18.544 518.885 17.856 518.208 17.344 517.344C16.8427 516.48 16.592 515.504 16.592 514.416C16.592 513.328 16.8427 512.352 17.344 511.488C17.856 510.624 18.544 509.952 19.408 509.472C20.2827 508.981 21.2373 508.736 22.272 508.736C23.456 508.736 24.5067 509.029 25.424 509.616C26.352 510.192 27.024 511.013 27.44 512.08H25.248ZM33.399 520.144C32.567 520.144 31.815 519.957 31.143 519.584C30.471 519.2 29.943 518.667 29.559 517.984C29.175 517.291 28.983 516.491 28.983 515.584C28.983 514.688 29.1803 513.893 29.575 513.2C29.9697 512.507 30.5083 511.973 31.191 511.6C31.8737 511.227 32.6363 511.04 33.479 511.04C34.3217 511.04 35.0843 511.227 35.767 511.6C36.4497 511.973 36.9883 512.507 37.383 513.2C37.7777 513.893 37.975 514.688 37.975 515.584C37.975 516.48 37.7723 517.275 37.367 517.968C36.9617 518.661 36.407 519.2 35.703 519.584C35.0097 519.957 34.2417 520.144 33.399 520.144ZM33.399 518.56C33.8683 518.56 34.3057 518.448 34.711 518.224C35.127 518 35.463 517.664 35.719 517.216C35.975 516.768 36.103 516.224 36.103 515.584C36.103 514.944 35.9803 514.405 35.735 513.968C35.4897 513.52 35.1643 513.184 34.759 512.96C34.3537 512.736 33.9163 512.624 33.447 512.624C32.9777 512.624 32.5403 512.736 32.135 512.96C31.7403 513.184 31.4257 513.52 31.191 513.968C30.9563 514.405 30.839 514.944 30.839 515.584C30.839 516.533 31.079 517.269 31.559 517.792C32.0497 518.304 32.663 518.56 33.399 518.56ZM41.6021 508.16V520H39.7781V508.16H41.6021ZM43.3889 515.552C43.3889 514.667 43.5702 513.883 43.9329 513.2C44.3062 512.517 44.8075 511.989 45.4369 511.616C46.0769 511.232 46.7862 511.04 47.5649 511.04C48.1409 511.04 48.7062 511.168 49.2609 511.424C49.8262 511.669 50.2742 512 50.6049 512.416V508.16H52.4449V520H50.6049V518.672C50.3062 519.099 49.8902 519.451 49.3569 519.728C48.8342 520.005 48.2315 520.144 47.5489 520.144C46.7809 520.144 46.0769 519.952 45.4369 519.568C44.8075 519.173 44.3062 518.629 43.9329 517.936C43.5702 517.232 43.3889 516.437 43.3889 515.552ZM50.6049 515.584C50.6049 514.976 50.4769 514.448 50.2209 514C49.9755 513.552 49.6502 513.211 49.2449 512.976C48.8395 512.741 48.4022 512.624 47.9329 512.624C47.4635 512.624 47.0262 512.741 46.6209 512.976C46.2155 513.2 45.8849 513.536 45.6289 513.984C45.3835 514.421 45.2609 514.944 45.2609 515.552C45.2609 516.16 45.3835 516.693 45.6289 517.152C45.8849 517.611 46.2155 517.963 46.6209 518.208C47.0369 518.443 47.4742 518.56 47.9329 518.56C48.4022 518.56 48.8395 518.443 49.2449 518.208C49.6502 517.973 49.9755 517.632 50.2209 517.184C50.4769 516.725 50.6049 516.192 50.6049 515.584ZM62.9206 515.376C62.9206 515.707 62.8993 516.005 62.8566 516.272H56.1206C56.174 516.976 56.4353 517.541 56.9046 517.968C57.374 518.395 57.95 518.608 58.6326 518.608C59.614 518.608 60.3073 518.197 60.7126 517.376H62.6806C62.414 518.187 61.9286 518.853 61.2246 519.376C60.5313 519.888 59.6673 520.144 58.6326 520.144C57.79 520.144 57.0326 519.957 56.3606 519.584C55.6993 519.2 55.1766 518.667 54.7926 517.984C54.4193 517.291 54.2326 516.491 54.2326 515.584C54.2326 514.677 54.414 513.883 54.7766 513.2C55.15 512.507 55.6673 511.973 56.3286 511.6C57.0006 511.227 57.7686 511.04 58.6326 511.04C59.4646 511.04 60.206 511.221 60.8566 511.584C61.5073 511.947 62.014 512.459 62.3766 513.12C62.7393 513.771 62.9206 514.523 62.9206 515.376ZM61.0166 514.8C61.006 514.128 60.766 513.589 60.2966 513.184C59.8273 512.779 59.246 512.576 58.5526 512.576C57.9233 512.576 57.3846 512.779 56.9366 513.184C56.4886 513.579 56.222 514.117 56.1366 514.8H61.0166ZM69.1636 511.04C69.857 511.04 70.4756 511.184 71.0196 511.472C71.5743 511.76 72.0063 512.187 72.3156 512.752C72.625 513.317 72.7796 514 72.7796 514.8V520H70.9716V515.072C70.9716 514.283 70.7743 513.68 70.3796 513.264C69.985 512.837 69.4463 512.624 68.7636 512.624C68.081 512.624 67.537 512.837 67.1316 513.264C66.737 513.68 66.5396 514.283 66.5396 515.072V520H64.7156V511.184H66.5396V512.192C66.8383 511.829 67.217 511.547 67.6756 511.344C68.145 511.141 68.641 511.04 69.1636 511.04ZM88.1425 508.88V520H86.3185V515.136H81.0865V520H79.2625V508.88H81.0865V513.648H86.3185V508.88H88.1425ZM94.3678 520.144C93.5358 520.144 92.7838 519.957 92.1118 519.584C91.4398 519.2 90.9118 518.667 90.5278 517.984C90.1438 517.291 89.9518 516.491 89.9518 515.584C89.9518 514.688 90.1491 513.893 90.5438 513.2C90.9384 512.507 91.4771 511.973 92.1598 511.6C92.8424 511.227 93.6051 511.04 94.4478 511.04C95.2904 511.04 96.0531 511.227 96.7358 511.6C97.4184 511.973 97.9571 512.507 98.3518 513.2C98.7464 513.893 98.9438 514.688 98.9438 515.584C98.9438 516.48 98.7411 517.275 98.3358 517.968C97.9304 518.661 97.3758 519.2 96.6718 519.584C95.9784 519.957 95.2104 520.144 94.3678 520.144ZM94.3678 518.56C94.8371 518.56 95.2744 518.448 95.6798 518.224C96.0958 518 96.4318 517.664 96.6878 517.216C96.9438 516.768 97.0718 516.224 97.0718 515.584C97.0718 514.944 96.9491 514.405 96.7038 513.968C96.4584 513.52 96.1331 513.184 95.7278 512.96C95.3224 512.736 94.8851 512.624 94.4158 512.624C93.9464 512.624 93.5091 512.736 93.1038 512.96C92.7091 513.184 92.3944 513.52 92.1598 513.968C91.9251 514.405 91.8078 514.944 91.8078 515.584C91.8078 516.533 92.0478 517.269 92.5278 517.792C93.0184 518.304 93.6318 518.56 94.3678 518.56ZM108.731 511.184V520H106.907V518.96C106.619 519.323 106.24 519.611 105.771 519.824C105.312 520.027 104.822 520.128 104.299 520.128C103.606 520.128 102.982 519.984 102.427 519.696C101.883 519.408 101.451 518.981 101.131 518.416C100.822 517.851 100.667 517.168 100.667 516.368V511.184H102.475V516.096C102.475 516.885 102.672 517.493 103.067 517.92C103.462 518.336 104 518.544 104.683 518.544C105.366 518.544 105.904 518.336 106.299 517.92C106.704 517.493 106.907 516.885 106.907 516.096V511.184H108.731ZM112.962 512.464C113.228 512.016 113.58 511.669 114.018 511.424C114.466 511.168 114.994 511.04 115.602 511.04V512.928H115.138C114.423 512.928 113.879 513.109 113.506 513.472C113.143 513.835 112.962 514.464 112.962 515.36V520H111.138V511.184H112.962V512.464Z" fill="white"/>
<circle cx="28" cy="546" r="12" fill="#D9D9D9"/>
<circle cx="28" cy="546" r="12"/>
<path d="M54.356 541.27V548.284C54.356 549.152 54.09 549.838 53.558 550.342C53.0353 550.846 52.3447 551.098 51.486 551.098C50.6273 551.098 49.932 550.846 49.4 550.342C48.8773 549.838 48.616 549.152 48.616 548.284H50.226C50.2353 548.713 50.3427 549.054 50.548 549.306C50.7627 549.558 51.0753 549.684 51.486 549.684C51.8967 549.684 52.2093 549.558 52.424 549.306C52.6387 549.045 52.746 548.704 52.746 548.284V541.27H54.356ZM60.2983 551.126C59.5703 551.126 58.9123 550.963 58.3243 550.636C57.7363 550.3 57.2743 549.833 56.9383 549.236C56.6023 548.629 56.4343 547.929 56.4343 547.136C56.4343 546.352 56.607 545.657 56.9523 545.05C57.2977 544.443 57.769 543.977 58.3663 543.65C58.9637 543.323 59.631 543.16 60.3683 543.16C61.1057 543.16 61.773 543.323 62.3703 543.65C62.9677 543.977 63.439 544.443 63.7843 545.05C64.1297 545.657 64.3023 546.352 64.3023 547.136C64.3023 547.92 64.125 548.615 63.7703 549.222C63.4157 549.829 62.9303 550.3 62.3143 550.636C61.7077 550.963 61.0357 551.126 60.2983 551.126ZM60.2983 549.74C60.709 549.74 61.0917 549.642 61.4463 549.446C61.8103 549.25 62.1043 548.956 62.3283 548.564C62.5523 548.172 62.6643 547.696 62.6643 547.136C62.6643 546.576 62.557 546.105 62.3423 545.722C62.1277 545.33 61.843 545.036 61.4883 544.84C61.1337 544.644 60.751 544.546 60.3403 544.546C59.9297 544.546 59.547 544.644 59.1923 544.84C58.847 545.036 58.5717 545.33 58.3663 545.722C58.161 546.105 58.0583 546.576 58.0583 547.136C58.0583 547.967 58.2683 548.611 58.6883 549.068C59.1177 549.516 59.6543 549.74 60.2983 549.74ZM69.8701 543.16C70.4581 543.16 70.9807 543.286 71.4381 543.538C71.9047 543.79 72.2687 544.163 72.5301 544.658C72.8007 545.153 72.9361 545.75 72.9361 546.45V551H71.3541V546.688C71.3541 545.997 71.1814 545.47 70.8361 545.106C70.4907 544.733 70.0194 544.546 69.4221 544.546C68.8247 544.546 68.3487 544.733 67.9941 545.106C67.6487 545.47 67.4761 545.997 67.4761 546.688V551H65.8801V540.64H67.4761V544.182C67.7467 543.855 68.0874 543.603 68.4981 543.426C68.9181 543.249 69.3754 543.16 69.8701 543.16ZM78.8639 543.16C79.4705 543.16 80.0119 543.286 80.4879 543.538C80.9732 543.79 81.3512 544.163 81.6219 544.658C81.8925 545.153 82.0279 545.75 82.0279 546.45V551H80.4459V546.688C80.4459 545.997 80.2732 545.47 79.9279 545.106C79.5825 544.733 79.1112 544.546 78.5139 544.546C77.9165 544.546 77.4405 544.733 77.0859 545.106C76.7405 545.47 76.5679 545.997 76.5679 546.688V551H74.9719V543.286H76.5679V544.168C76.8292 543.851 77.1605 543.603 77.5619 543.426C77.9725 543.249 78.4065 543.16 78.8639 543.16ZM90.8784 541.27C91.9144 541.27 92.8197 541.471 93.5944 541.872C94.3784 542.264 94.9804 542.833 95.4004 543.58C95.8297 544.317 96.0444 545.181 96.0444 546.17C96.0444 547.159 95.8297 548.018 95.4004 548.746C94.9804 549.474 94.3784 550.034 93.5944 550.426C92.8197 550.809 91.9144 551 90.8784 551H87.7004V541.27H90.8784ZM90.8784 549.698C92.0171 549.698 92.8897 549.39 93.4964 548.774C94.1031 548.158 94.4064 547.29 94.4064 546.17C94.4064 545.041 94.1031 544.159 93.4964 543.524C92.8897 542.889 92.0171 542.572 90.8784 542.572H89.2964V549.698H90.8784ZM100.972 551.126C100.244 551.126 99.5862 550.963 98.9982 550.636C98.4102 550.3 97.9482 549.833 97.6122 549.236C97.2762 548.629 97.1082 547.929 97.1082 547.136C97.1082 546.352 97.2808 545.657 97.6262 545.05C97.9715 544.443 98.4428 543.977 99.0402 543.65C99.6375 543.323 100.305 543.16 101.042 543.16C101.78 543.16 102.447 543.323 103.044 543.65C103.642 543.977 104.113 544.443 104.458 545.05C104.804 545.657 104.976 546.352 104.976 547.136C104.976 547.92 104.799 548.615 104.444 549.222C104.09 549.829 103.604 550.3 102.988 550.636C102.382 550.963 101.71 551.126 100.972 551.126ZM100.972 549.74C101.383 549.74 101.766 549.642 102.12 549.446C102.484 549.25 102.778 548.956 103.002 548.564C103.226 548.172 103.338 547.696 103.338 547.136C103.338 546.576 103.231 546.105 103.016 545.722C102.802 545.33 102.517 545.036 102.162 544.84C101.808 544.644 101.425 544.546 101.014 544.546C100.604 544.546 100.221 544.644 99.8662 544.84C99.5208 545.036 99.2455 545.33 99.0402 545.722C98.8348 546.105 98.7322 546.576 98.7322 547.136C98.7322 547.967 98.9422 548.611 99.3622 549.068C99.7915 549.516 100.328 549.74 100.972 549.74ZM113.624 546.954C113.624 547.243 113.605 547.505 113.568 547.738H107.674C107.721 548.354 107.949 548.849 108.36 549.222C108.771 549.595 109.275 549.782 109.872 549.782C110.731 549.782 111.337 549.423 111.692 548.704H113.414C113.181 549.413 112.756 549.997 112.14 550.454C111.533 550.902 110.777 551.126 109.872 551.126C109.135 551.126 108.472 550.963 107.884 550.636C107.305 550.3 106.848 549.833 106.512 549.236C106.185 548.629 106.022 547.929 106.022 547.136C106.022 546.343 106.181 545.647 106.498 545.05C106.825 544.443 107.277 543.977 107.856 543.65C108.444 543.323 109.116 543.16 109.872 543.16C110.6 543.16 111.249 543.319 111.818 543.636C112.387 543.953 112.831 544.401 113.148 544.98C113.465 545.549 113.624 546.207 113.624 546.954ZM111.958 546.45C111.949 545.862 111.739 545.391 111.328 545.036C110.917 544.681 110.409 544.504 109.802 544.504C109.251 544.504 108.78 544.681 108.388 545.036C107.996 545.381 107.763 545.853 107.688 546.45H111.958Z" fill="#968BA2"/>
</g>
<g filter="url(#filter2_b_1_152)">
<g filter="url(#filter3_b_1_152)">
<path d="M565.018 654.251C569.453 652.408 572.825 648.67 574.204 644.07L665.216 340.471C667.753 332.007 662.948 323.088 654.484 320.551L397.77 243.594C389.306 241.057 380.387 245.862 377.85 254.326L269.594 615.449C267.057 623.914 271.862 632.832 280.326 635.37L466.641 691.222C470.176 692.282 473.968 692.087 477.376 690.671L565.018 654.251Z" fill="#080B2A" fill-opacity="0.7"/>
<path d="M573.725 643.926C572.389 648.383 569.122 652.004 564.826 653.789L477.184 690.209C473.883 691.581 470.209 691.77 466.785 690.743L280.47 634.891C272.27 632.433 267.615 623.793 270.073 615.593L378.329 254.47C380.787 246.27 389.427 241.615 397.627 244.073L654.34 321.029C662.54 323.488 667.195 332.128 664.737 340.327L573.725 643.926Z" stroke="url(#paint2_linear_1_152)" stroke-opacity="0.7"/>
</g>
<path d="M391.141 271.705C392.222 271.22 393.079 270.814 393.713 270.488C394.358 270.155 394.924 269.779 395.41 269.36C395.897 268.941 396.218 268.472 396.373 267.953C396.534 267.417 396.53 266.958 396.362 266.576C396.203 266.197 395.85 265.926 395.305 265.762C394.778 265.604 394.315 265.651 393.919 265.902C393.533 266.147 393.247 266.548 393.061 267.106L391.585 266.664C391.918 265.653 392.455 264.966 393.197 264.604C393.95 264.236 394.779 264.187 395.682 264.457C396.656 264.749 397.336 265.245 397.72 265.945C398.114 266.648 398.176 267.446 397.908 268.34C397.715 268.984 397.364 269.556 396.853 270.056C396.355 270.549 395.806 270.965 395.208 271.302C394.622 271.633 393.888 272.002 393.005 272.41L392.241 272.765L396.492 274.04L396.11 275.314L389.593 273.36L389.927 272.247L391.141 271.705ZM399.725 267.409L400.143 266.014L402.932 266.85L400.001 276.626L398.459 276.164L400.972 267.782L399.725 267.409ZM403.605 272.24C404.069 270.694 404.69 269.564 405.468 268.853C406.258 268.135 407.293 267.967 408.571 268.351C409.85 268.734 410.617 269.441 410.873 270.473C411.14 271.498 411.042 272.784 410.578 274.331C410.109 275.895 409.479 277.041 408.686 277.768C407.905 278.489 406.875 278.657 405.596 278.274C404.318 277.891 403.546 277.182 403.281 276.148C403.028 275.107 403.136 273.805 403.605 272.24ZM409.076 273.881C409.294 273.156 409.428 272.529 409.48 271.999C409.54 271.472 409.475 271.009 409.282 270.61C409.093 270.202 408.716 269.914 408.153 269.745C407.59 269.576 407.117 269.61 406.734 269.846C406.354 270.073 406.04 270.422 405.792 270.894C405.552 271.367 405.324 271.966 405.107 272.691C404.882 273.442 404.738 274.085 404.674 274.622C404.611 275.158 404.675 275.626 404.868 276.024C405.069 276.426 405.451 276.711 406.014 276.88C406.578 277.048 407.049 277.019 407.429 276.792C407.818 276.568 408.133 276.214 408.376 275.731C408.618 275.248 408.851 274.631 409.076 273.881ZM420.215 272.528C421.208 272.826 422.017 273.278 422.644 273.885C423.283 274.485 423.696 275.203 423.884 276.039C424.083 276.869 424.041 277.757 423.757 278.705C423.473 279.653 423.021 280.414 422.4 280.988C421.789 281.564 421.051 281.928 420.188 282.078C419.336 282.222 418.414 282.146 417.421 281.848L414.377 280.936L417.171 271.616L420.215 272.528ZM417.795 280.601C418.886 280.928 419.81 280.884 420.568 280.468C421.326 280.052 421.866 279.308 422.188 278.235C422.512 277.153 422.475 276.221 422.076 275.439C421.677 274.657 420.932 274.102 419.842 273.775L418.326 273.321L416.28 280.147L417.795 280.601ZM427.171 275.651C426.894 275.568 426.69 275.404 426.558 275.16C426.427 274.916 426.403 274.656 426.486 274.379C426.569 274.101 426.733 273.897 426.977 273.766C427.221 273.634 427.481 273.61 427.758 273.693C428.027 273.773 428.226 273.936 428.358 274.18C428.489 274.424 428.513 274.684 428.43 274.962C428.347 275.239 428.184 275.443 427.94 275.574C427.696 275.706 427.44 275.731 427.171 275.651ZM427.629 276.855L425.414 284.244L423.885 283.786L426.1 276.397L427.629 276.855ZM432.649 278.229C433.222 278.4 433.692 278.668 434.06 279.032C434.44 279.389 434.704 279.775 434.853 280.19L435.175 279.117L436.717 279.579L434.466 287.089C434.262 287.769 433.938 288.329 433.494 288.771C433.047 289.222 432.505 289.517 431.869 289.658C431.241 289.801 430.552 289.76 429.801 289.535C428.8 289.235 428.039 288.748 427.52 288.076C426.997 287.413 426.812 286.666 426.964 285.834L428.479 286.289C428.48 286.708 428.634 287.09 428.94 287.435C429.252 287.792 429.671 288.049 430.199 288.207C430.816 288.392 431.368 288.353 431.856 288.09C432.353 287.83 432.709 287.342 432.923 286.627L433.293 285.393C432.929 285.664 432.488 285.853 431.968 285.961C431.461 286.062 430.925 286.028 430.362 285.859C429.718 285.666 429.176 285.328 428.736 284.846C428.308 284.357 428.025 283.775 427.886 283.1C427.759 282.419 427.807 281.707 428.029 280.965C428.251 280.223 428.6 279.611 429.076 279.13C429.56 278.652 430.113 278.335 430.734 278.181C431.367 278.02 432.006 278.036 432.649 278.229ZM434.069 282.805C434.222 282.295 434.247 281.821 434.145 281.381C434.052 280.944 433.865 280.576 433.584 280.277C433.304 279.979 432.967 279.771 432.573 279.653C432.18 279.535 431.784 279.523 431.385 279.618C430.989 279.704 430.628 279.902 430.3 280.214C429.985 280.519 429.751 280.926 429.598 281.435C429.445 281.945 429.414 282.423 429.504 282.869C429.604 283.318 429.792 283.696 430.071 284.003C430.36 284.304 430.697 284.513 431.082 284.628C431.475 284.746 431.871 284.757 432.27 284.663C432.669 284.568 433.027 284.363 433.345 284.05C433.675 283.729 433.916 283.315 434.069 282.805ZM439.796 279.436C439.519 279.352 439.315 279.189 439.183 278.945C439.052 278.701 439.027 278.44 439.111 278.163C439.194 277.886 439.357 277.682 439.601 277.55C439.845 277.419 440.106 277.395 440.383 277.478C440.651 277.558 440.851 277.72 440.982 277.964C441.114 278.208 441.138 278.469 441.055 278.746C440.972 279.023 440.808 279.228 440.564 279.359C440.32 279.49 440.064 279.516 439.796 279.436ZM440.254 280.64L438.038 288.029L436.51 287.57L438.725 280.181L440.254 280.64ZM443.67 283.023L442.444 287.113C442.361 287.39 442.363 287.61 442.451 287.773C442.55 287.93 442.756 288.055 443.069 288.148L444.008 288.43L443.626 289.704L442.419 289.342C441.731 289.136 441.252 288.817 440.982 288.385C440.712 287.953 440.685 287.375 440.902 286.651L442.128 282.561L441.257 282.3L441.63 281.052L442.502 281.314L443.053 279.476L444.595 279.939L444.044 281.776L445.841 282.315L445.467 283.562L443.67 283.023ZM445.643 286.245C445.866 285.503 446.215 284.892 446.69 284.411C447.175 283.932 447.727 283.616 448.349 283.461C448.982 283.3 449.62 283.316 450.264 283.509C450.845 283.683 451.315 283.951 451.674 284.312C452.046 284.667 452.31 285.053 452.467 285.47L452.789 284.397L454.331 284.86L452.116 292.249L450.574 291.787L450.903 290.687C450.54 290.958 450.099 291.143 449.583 291.241C449.066 291.339 448.522 291.303 447.949 291.131C447.315 290.941 446.782 290.606 446.351 290.126C445.922 289.637 445.639 289.055 445.5 288.38C445.373 287.699 445.421 286.987 445.643 286.245ZM451.683 288.085C451.836 287.576 451.861 287.101 451.759 286.661C451.666 286.224 451.479 285.856 451.199 285.558C450.918 285.259 450.581 285.051 450.187 284.933C449.794 284.815 449.398 284.804 448.999 284.898C448.603 284.984 448.242 285.183 447.915 285.494C447.599 285.799 447.365 286.206 447.212 286.716C447.059 287.225 447.028 287.703 447.119 288.149C447.218 288.598 447.407 288.976 447.685 289.284C447.975 289.585 448.312 289.793 448.696 289.908C449.089 290.026 449.485 290.038 449.884 289.943C450.283 289.848 450.641 289.644 450.959 289.33C451.289 289.01 451.531 288.595 451.683 288.085ZM458.628 283.385L455.653 293.309L454.124 292.851L457.099 282.927L458.628 283.385ZM467.333 294.735L463.431 293.565L462.189 295.269L460.594 294.79L466.731 286.458L468.501 286.988L469.042 297.323L467.433 296.84L467.333 294.735ZM467.278 293.359L467.061 288.574L464.234 292.447L467.278 293.359ZM473.916 291.9C474.252 291.592 474.635 291.39 475.063 291.294C475.503 291.192 475.977 291.217 476.487 291.37L476.012 292.952L475.624 292.836C475.025 292.656 474.523 292.671 474.119 292.882C473.724 293.095 473.414 293.576 473.189 294.327L472.023 298.216L470.494 297.758L472.709 290.369L474.238 290.827L473.916 291.9ZM479.266 293.694L478.039 297.784C477.956 298.061 477.959 298.281 478.046 298.444C478.146 298.6 478.352 298.725 478.665 298.819L479.603 299.1L479.221 300.374L478.014 300.013C477.326 299.806 476.847 299.487 476.577 299.055C476.307 298.624 476.28 298.046 476.497 297.322L477.723 293.231L476.852 292.97L477.226 291.723L478.097 291.984L478.648 290.147L480.19 290.609L479.639 292.447L481.436 292.985L481.063 294.232L479.266 293.694ZM492.769 296.382L488.261 303.084L486.652 302.602L486.799 296.698L483.675 301.709L482.065 301.227L481.974 293.146L483.529 293.613L483.291 300.016L486.641 294.545L488.236 295.024L487.966 301.388L491.267 295.932L492.769 296.382ZM494.866 305.196C494.168 304.987 493.585 304.641 493.115 304.159C492.649 303.669 492.34 303.089 492.19 302.42C492.042 301.743 492.082 301.024 492.31 300.264C492.535 299.513 492.9 298.897 493.405 298.415C493.91 297.933 494.496 297.621 495.162 297.48C495.828 297.338 496.514 297.373 497.22 297.585C497.926 297.797 498.519 298.145 498.997 298.629C499.475 299.114 499.793 299.696 499.949 300.377C500.106 301.057 500.072 301.772 499.847 302.523C499.622 303.274 499.252 303.89 498.738 304.369C498.224 304.848 497.624 305.16 496.937 305.305C496.262 305.444 495.572 305.407 494.866 305.196ZM495.264 303.868C495.657 303.986 496.052 304.002 496.448 303.916C496.853 303.833 497.219 303.636 497.546 303.324C497.873 303.013 498.117 302.589 498.278 302.053C498.438 301.517 498.471 301.034 498.375 300.606C498.282 300.169 498.094 299.806 497.81 299.516C497.527 299.226 497.189 299.023 496.795 298.905C496.402 298.787 496.007 298.771 495.611 298.857C495.224 298.945 494.876 299.148 494.567 299.464C494.26 299.772 494.026 300.194 493.866 300.73C493.627 301.526 493.643 302.203 493.914 302.762C494.197 303.314 494.647 303.683 495.264 303.868ZM503.671 300.82C504.007 300.511 504.389 300.309 504.817 300.213C505.257 300.111 505.732 300.137 506.241 300.289L505.767 301.872L505.378 301.755C504.779 301.576 504.277 301.591 503.873 301.801C503.478 302.014 503.168 302.496 502.943 303.247L501.777 307.136L500.248 306.678L502.463 299.289L503.992 299.747L503.671 300.82ZM509.424 305.409L511.725 310.118L509.66 309.499L507.877 305.501L506.924 308.679L505.395 308.221L508.37 298.297L509.899 298.755L508.17 304.522L511.821 302.094L513.94 302.729L509.424 305.409Z" fill="white"/>
<g clip-path="url(#clip1_1_152)">
<path d="M389.302 299.725L385.671 296.373L388.206 303.365L389.102 302.697L390.029 299.604L389.302 299.725Z" fill="#15BFFD"/>
<path d="M392.8 288.039L385.294 295.334L395.056 298.26L392.8 288.039Z" fill="#15BFFD"/>
<path d="M395.052 298.273L392.8 288.039L390.171 296.81L395.052 298.273Z" fill="#1286B0"/>
<path d="M389.866 292.461L390.824 292.748L390.536 293.706L389.579 293.419L389.866 292.461Z" fill="#F7F8FA"/>
<path d="M390.888 294.419L390.872 294.404L385.293 295.341L385.297 295.343L389.44 299.195L389.462 299.191L390.189 299.071L391.433 294.923L390.888 294.419Z" fill="#147EA5"/>
<path d="M390.409 290.649L391.367 290.936L391.08 291.894L390.122 291.607L390.409 290.649Z" fill="#F7F8FA"/>
<path d="M389.302 299.725L388.206 303.365L394.174 298.918L389.302 299.725Z" fill="#1286B0"/>
<path d="M395.045 298.265L390.888 294.419L390.872 294.404L389.44 299.195L389.462 299.191L395.049 298.266L395.045 298.265Z" fill="#0E526A"/>
</g>
<path d="M403.628 296.931C403.986 295.924 404.579 295.245 405.409 294.892C406.252 294.532 407.22 294.516 408.313 294.844C409.059 295.068 409.658 295.392 410.109 295.817C410.564 296.232 410.857 296.703 410.988 297.233C411.132 297.755 411.12 298.297 410.951 298.859C410.758 299.502 410.426 299.998 409.954 300.347C409.495 300.688 409.013 300.867 408.507 300.882L408.489 300.943C409.026 301.305 409.388 301.77 409.574 302.338C409.77 302.909 409.758 303.562 409.538 304.298C409.354 304.911 409.047 305.415 408.617 305.809C408.197 306.207 407.67 306.461 407.036 306.571C406.415 306.674 405.721 306.611 404.954 306.382C403.8 306.035 402.947 305.462 402.396 304.663C401.845 303.863 401.72 302.89 402.019 301.743L404.103 302.368C403.973 302.875 404.021 303.329 404.246 303.73C404.484 304.125 404.884 304.406 405.446 304.575C405.967 304.731 406.408 304.707 406.77 304.504C407.145 304.293 407.401 303.958 407.539 303.498C407.723 302.885 407.661 302.388 407.352 302.006C407.043 301.624 406.48 301.31 405.663 301.065L405.218 300.932L405.747 299.169L406.191 299.303C407.642 299.738 408.513 299.47 408.804 298.499C408.936 298.06 408.906 297.678 408.713 297.353C408.531 297.031 408.195 296.796 407.705 296.649C407.225 296.506 406.812 296.527 406.467 296.713C406.135 296.891 405.888 297.174 405.728 297.56L403.628 296.931ZM411.469 308.368C411.08 308.251 410.794 308.037 410.609 307.726C410.437 307.407 410.405 307.069 410.512 306.711C410.619 306.354 410.831 306.094 411.146 305.933C411.475 305.764 411.834 305.738 412.222 305.854C412.6 305.968 412.875 306.184 413.047 306.502C413.221 306.811 413.255 307.144 413.148 307.502C413.041 307.859 412.828 308.124 412.509 308.295C412.194 308.457 411.847 308.481 411.469 308.368ZM415.687 306.876C416.913 306.353 417.898 305.908 418.643 305.541C419.391 305.164 420.047 304.737 420.613 304.261C421.179 303.784 421.548 303.26 421.719 302.688C421.876 302.167 421.876 301.722 421.719 301.352C421.563 300.982 421.229 300.72 420.718 300.567C420.207 300.414 419.762 300.47 419.382 300.735C419.005 300.989 418.723 301.411 418.535 302.001L416.45 301.376C416.859 300.162 417.5 299.341 418.375 298.913C419.259 298.487 420.233 298.434 421.296 298.753C422.46 299.102 423.261 299.681 423.698 300.492C424.137 301.291 424.205 302.197 423.902 303.209C423.663 304.006 423.22 304.703 422.574 305.299C421.927 305.896 421.247 306.383 420.533 306.759C419.822 307.125 418.908 307.552 417.793 308.042L422.314 309.397L421.781 311.175L414.21 308.906L414.688 307.312L415.687 306.876ZM431.818 304.579L431.014 307.261L434.615 308.341L434.105 310.042L430.504 308.963L429.654 311.798L433.715 313.016L433.191 314.763L426.984 312.902L430.196 302.189L436.403 304.05L435.879 305.797L431.818 304.579ZM445.628 306.832L445.109 308.564L442.258 307.709L439.571 316.675L437.425 316.032L440.113 307.066L437.262 306.211L437.781 304.48L445.628 306.832ZM456.067 309.961L452.861 320.659L450.715 320.016L452.079 315.464L447.497 314.09L446.132 318.642L443.987 317.999L447.194 307.301L449.339 307.944L448.021 312.343L452.603 313.717L453.922 309.318L456.067 309.961Z" fill="#15BFFD"/>
<rect x="374.798" y="320.225" width="268" height="241" rx="5" transform="rotate(16.6874 374.798 320.225)"/>
<path d="M306.965 578.713C306.848 578.099 306.585 577.586 306.174 577.173C305.766 576.75 305.24 576.442 304.597 576.249C303.892 576.038 303.216 576.008 302.569 576.159C301.922 576.31 301.353 576.63 300.862 577.117C300.381 577.608 300.026 578.236 299.796 579.003C299.566 579.769 299.516 580.494 299.645 581.179C299.787 581.856 300.086 582.436 300.543 582.918C301 583.4 301.581 583.747 302.286 583.958C303.236 584.243 304.087 584.209 304.839 583.855C305.591 583.501 306.169 582.89 306.575 582.02L302.575 580.821L302.993 579.426L308.863 581.186L308.454 582.55C308.093 583.344 307.569 584.016 306.88 584.567C306.202 585.121 305.417 585.493 304.525 585.682C303.647 585.864 302.742 585.815 301.813 585.537C300.811 585.237 299.966 584.733 299.276 584.025C298.589 583.307 298.125 582.46 297.882 581.486C297.65 580.514 297.69 579.507 298.003 578.465C298.315 577.423 298.836 576.56 299.564 575.876C300.302 575.196 301.154 574.749 302.12 574.538C303.099 574.319 304.083 574.358 305.075 574.655C306.209 574.995 307.131 575.578 307.841 576.403C308.565 577.221 308.972 578.201 309.065 579.342L306.965 578.713ZM312.457 588.778C311.66 588.539 310.993 588.144 310.457 587.594C309.924 587.033 309.571 586.37 309.399 585.606C309.23 584.832 309.276 584.01 309.537 583.142C309.794 582.284 310.211 581.579 310.788 581.028C311.365 580.477 312.034 580.121 312.796 579.96C313.557 579.798 314.341 579.838 315.148 580.08C315.955 580.322 316.632 580.72 317.179 581.274C317.726 581.827 318.088 582.493 318.267 583.27C318.446 584.048 318.407 584.866 318.15 585.724C317.893 586.582 317.47 587.285 316.883 587.833C316.296 588.381 315.61 588.737 314.825 588.903C314.054 589.062 313.264 589.02 312.457 588.778ZM312.912 587.261C313.362 587.395 313.813 587.414 314.265 587.315C314.728 587.22 315.146 586.995 315.52 586.639C315.894 586.284 316.173 585.799 316.357 585.186C316.54 584.573 316.578 584.022 316.468 583.533C316.362 583.033 316.147 582.618 315.823 582.287C315.499 581.956 315.112 581.723 314.662 581.588C314.213 581.454 313.762 581.435 313.309 581.533C312.867 581.635 312.469 581.866 312.116 582.228C311.765 582.579 311.498 583.062 311.314 583.675C311.042 584.584 311.06 585.358 311.37 585.997C311.693 586.628 312.207 587.049 312.912 587.261ZM323.756 579.654L320.356 590.995L318.609 590.472L322.009 579.13L323.756 579.654ZM323.345 587.248C323.599 586.4 323.998 585.701 324.541 585.151C325.095 584.604 325.727 584.243 326.437 584.066C327.16 583.882 327.895 583.901 328.641 584.125C329.192 584.29 329.697 584.575 330.155 584.98C330.626 585.377 330.96 585.823 331.157 586.316L332.38 582.239L334.142 582.768L330.742 594.109L328.98 593.581L329.361 592.309C328.952 592.631 328.453 592.849 327.862 592.962C327.282 593.077 326.665 593.037 326.011 592.841C325.275 592.62 324.656 592.234 324.153 591.683C323.664 591.124 323.34 590.459 323.181 589.688C323.036 588.909 323.091 588.096 323.345 587.248ZM330.248 589.351C330.422 588.768 330.451 588.226 330.335 587.723C330.228 587.223 330.015 586.803 329.694 586.462C329.373 586.121 328.988 585.883 328.538 585.748C328.089 585.613 327.636 585.6 327.18 585.708C326.728 585.807 326.315 586.033 325.941 586.389C325.58 586.738 325.313 587.203 325.138 587.785C324.963 588.368 324.928 588.914 325.031 589.424C325.145 589.937 325.36 590.369 325.678 590.72C326.009 591.064 326.394 591.302 326.834 591.434C327.283 591.569 327.736 591.582 328.192 591.474C328.647 591.365 329.057 591.132 329.421 590.773C329.797 590.407 330.073 589.933 330.248 589.351ZM342.105 592.688C342.01 593.005 341.903 593.284 341.786 593.528L335.334 591.593C335.183 592.283 335.271 592.9 335.598 593.443C335.925 593.987 336.415 594.356 337.069 594.552C338.009 594.834 338.791 594.64 339.415 593.97L341.3 594.535C340.812 595.235 340.156 595.734 339.331 596.032C338.52 596.324 337.619 596.321 336.628 596.024C335.821 595.782 335.149 595.385 334.613 594.835C334.089 594.277 333.742 593.616 333.57 592.852C333.411 592.081 333.462 591.261 333.723 590.392C333.983 589.524 334.385 588.815 334.928 588.265C335.485 587.708 336.134 587.346 336.874 587.178C337.625 587.013 338.415 587.055 339.242 587.303C340.039 587.542 340.697 587.929 341.216 588.463C341.736 588.997 342.074 589.633 342.231 590.371C342.392 591.098 342.35 591.87 342.105 592.688ZM340.446 591.589C340.629 590.943 340.554 590.358 340.221 589.835C339.887 589.312 339.389 588.951 338.725 588.751C338.122 588.571 337.548 588.61 337.002 588.87C336.46 589.119 336.049 589.559 335.772 590.188L340.446 591.589ZM349.33 590.327C349.994 590.526 350.545 590.842 350.984 591.274C351.432 591.709 351.723 592.242 351.857 592.872C351.991 593.502 351.944 594.201 351.714 594.967L350.221 599.948L348.489 599.429L349.904 594.708C350.13 593.952 350.115 593.318 349.856 592.807C349.6 592.285 349.146 591.926 348.492 591.729C347.838 591.533 347.255 591.582 346.745 591.874C346.247 592.159 345.885 592.68 345.658 593.436L344.243 598.156L342.496 597.632L345.028 589.188L346.775 589.712L346.485 590.677C346.876 590.415 347.32 590.253 347.817 590.191C348.325 590.132 348.829 590.177 349.33 590.327ZM368.13 593.708L364.936 604.359L363.189 603.836L364.586 599.177L359.574 597.674L358.178 602.333L356.43 601.81L359.624 591.158L361.371 591.682L360.002 596.249L365.013 597.751L366.382 593.184L368.13 593.708ZM370.858 606.285C370.061 606.046 369.395 605.651 368.858 605.101C368.325 604.54 367.972 603.877 367.8 603.113C367.631 602.339 367.677 601.517 367.938 600.649C368.195 599.791 368.612 599.086 369.189 598.535C369.766 597.985 370.435 597.628 371.197 597.467C371.958 597.305 372.742 597.345 373.549 597.587C374.356 597.829 375.033 598.227 375.58 598.781C376.127 599.334 376.489 600 376.668 600.777C376.847 601.555 376.808 602.373 376.551 603.231C376.294 604.089 375.871 604.792 375.284 605.34C374.697 605.888 374.011 606.245 373.226 606.41C372.455 606.569 371.665 606.527 370.858 606.285ZM371.313 604.768C371.763 604.902 372.214 604.921 372.666 604.823C373.129 604.727 373.547 604.502 373.921 604.147C374.295 603.791 374.574 603.307 374.758 602.693C374.942 602.08 374.979 601.529 374.869 601.04C374.763 600.54 374.548 600.125 374.224 599.794C373.9 599.463 373.513 599.23 373.064 599.095C372.614 598.961 372.163 598.942 371.71 599.041C371.268 599.142 370.87 599.373 370.517 599.735C370.166 600.087 369.899 600.569 369.715 601.182C369.443 602.091 369.461 602.865 369.771 603.504C370.094 604.135 370.608 604.556 371.313 604.768ZM387.189 601.827L384.658 610.271L382.911 609.748L383.209 608.751C382.829 609.016 382.384 609.183 381.873 609.253C381.375 609.315 380.876 609.271 380.376 609.121C379.712 608.922 379.155 608.605 378.707 608.17C378.268 607.738 377.977 607.205 377.833 606.572C377.699 605.941 377.747 605.243 377.976 604.477L379.465 599.511L381.197 600.03L379.786 604.735C379.56 605.492 379.574 606.131 379.83 606.653C380.088 607.164 380.544 607.518 381.198 607.714C381.852 607.91 382.428 607.866 382.925 607.581C383.436 607.288 383.805 606.764 384.032 606.008L385.442 601.303L387.189 601.827ZM390.874 604.268C391.258 603.915 391.695 603.684 392.184 603.575C392.687 603.458 393.23 603.487 393.812 603.662L393.27 605.47L392.825 605.337C392.141 605.132 391.568 605.149 391.106 605.389C390.654 605.633 390.3 606.183 390.043 607.042L388.71 611.486L386.963 610.962L389.495 602.518L391.242 603.042L390.874 604.268Z" fill="white"/>
<circle cx="299.861" cy="611.995" r="12" transform="rotate(16.6874 299.861 611.995)" fill="#D9D9D9"/>
<circle cx="299.861" cy="611.995" r="12" transform="rotate(16.6874 299.861 611.995)"/>
<path d="M326.465 615.032L324.451 621.75C324.202 622.582 323.75 623.163 323.096 623.493C322.45 623.825 321.716 623.868 320.894 623.622C320.071 623.375 319.478 622.934 319.113 622.299C318.757 621.666 318.704 620.934 318.953 620.102L320.495 620.565C320.381 620.978 320.386 621.336 320.51 621.636C320.643 621.939 320.907 622.149 321.3 622.267C321.693 622.385 322.029 622.354 322.307 622.175C322.588 621.986 322.788 621.69 322.909 621.288L324.923 614.57L326.465 615.032ZM329.327 626.179C328.63 625.97 328.046 625.625 327.577 625.143C327.11 624.652 326.802 624.073 326.651 623.404C326.504 622.726 326.544 622.008 326.772 621.248C326.997 620.497 327.362 619.88 327.867 619.398C328.372 618.916 328.957 618.605 329.623 618.463C330.289 618.322 330.975 618.357 331.682 618.569C332.388 618.78 332.98 619.129 333.459 619.613C333.937 620.097 334.254 620.68 334.411 621.36C334.568 622.04 334.533 622.756 334.308 623.507C334.083 624.258 333.714 624.873 333.2 625.352C332.686 625.832 332.086 626.144 331.399 626.289C330.724 626.427 330.033 626.391 329.327 626.179ZM329.725 624.852C330.119 624.969 330.513 624.985 330.909 624.9C331.314 624.816 331.68 624.619 332.007 624.308C332.334 623.997 332.578 623.573 332.739 623.037C332.9 622.5 332.933 622.018 332.837 621.59C332.744 621.153 332.556 620.789 332.272 620.5C331.989 620.21 331.65 620.006 331.257 619.888C330.863 619.77 330.469 619.754 330.073 619.84C329.686 619.929 329.338 620.131 329.028 620.448C328.722 620.756 328.488 621.178 328.327 621.714C328.089 622.51 328.105 623.187 328.376 623.745C328.659 624.298 329.108 624.667 329.725 624.852ZM340.783 621.297C341.346 621.466 341.811 621.737 342.177 622.109C342.551 622.485 342.793 622.947 342.901 623.496C343.018 624.047 342.976 624.658 342.775 625.329L341.469 629.687L339.953 629.233L341.192 625.103C341.39 624.441 341.376 623.886 341.15 623.439C340.926 622.982 340.528 622.668 339.956 622.496C339.384 622.325 338.874 622.367 338.427 622.622C337.992 622.872 337.675 623.328 337.477 623.989L336.239 628.12L334.71 627.661L337.685 617.738L339.214 618.196L338.197 621.589C338.55 621.353 338.948 621.21 339.393 621.158C339.846 621.109 340.309 621.155 340.783 621.297ZM349.398 623.88C349.979 624.054 350.462 624.33 350.845 624.708C351.238 625.089 351.493 625.555 351.61 626.107C351.727 626.658 351.685 627.269 351.484 627.94L350.178 632.298L348.662 631.844L349.901 627.713C350.099 627.052 350.085 626.497 349.859 626.049C349.635 625.593 349.237 625.278 348.665 625.107C348.093 624.935 347.583 624.977 347.136 625.233C346.701 625.483 346.384 625.938 346.186 626.6L344.948 630.73L343.419 630.272L345.634 622.883L347.163 623.341L346.91 624.186C347.251 623.957 347.639 623.815 348.075 623.761C348.519 623.709 348.96 623.748 349.398 623.88ZM361.449 625.519C362.442 625.817 363.251 626.269 363.878 626.876C364.517 627.476 364.93 628.195 365.118 629.03C365.317 629.86 365.275 630.749 364.991 631.696C364.707 632.644 364.255 633.405 363.634 633.979C363.023 634.556 362.286 634.919 361.422 635.07C360.57 635.214 359.648 635.137 358.656 634.839L355.611 633.927L358.405 624.607L361.449 625.519ZM359.029 633.592C360.12 633.919 361.044 633.875 361.802 633.459C362.56 633.043 363.1 632.299 363.422 631.226C363.746 630.144 363.709 629.212 363.31 628.43C362.911 627.648 362.166 627.093 361.076 626.766L359.56 626.312L357.514 633.138L359.029 633.592ZM368.288 637.859C367.591 637.65 367.007 637.304 366.538 636.822C366.071 636.332 365.763 635.752 365.612 635.083C365.465 634.406 365.505 633.687 365.732 632.927C365.958 632.176 366.323 631.56 366.828 631.078C367.333 630.596 367.918 630.284 368.584 630.143C369.25 630.001 369.936 630.036 370.643 630.248C371.349 630.46 371.941 630.808 372.42 631.292C372.898 631.777 373.215 632.359 373.372 633.039C373.529 633.72 373.494 634.435 373.269 635.186C373.044 635.937 372.674 636.553 372.161 637.032C371.647 637.511 371.046 637.823 370.36 637.968C369.685 638.107 368.994 638.07 368.288 637.859ZM368.686 636.531C369.079 636.649 369.474 636.665 369.87 636.579C370.275 636.496 370.641 636.299 370.968 635.987C371.295 635.676 371.539 635.252 371.7 634.716C371.861 634.18 371.893 633.697 371.798 633.269C371.705 632.832 371.516 632.469 371.233 632.179C370.949 631.889 370.611 631.686 370.218 631.568C369.824 631.45 369.43 631.434 369.034 631.52C368.647 631.608 368.298 631.811 367.989 632.127C367.683 632.435 367.449 632.857 367.288 633.393C367.05 634.189 367.066 634.866 367.337 635.425C367.619 635.977 368.069 636.346 368.686 636.531ZM381.605 637.495C381.522 637.772 381.429 638.017 381.326 638.23L375.68 636.538C375.548 637.141 375.625 637.681 375.911 638.156C376.198 638.632 376.627 638.955 377.199 639.127C378.021 639.373 378.706 639.203 379.252 638.617L380.901 639.111C380.474 639.724 379.9 640.161 379.178 640.422C378.469 640.677 377.68 640.674 376.813 640.414C376.107 640.202 375.519 639.856 375.049 639.374C374.592 638.886 374.288 638.308 374.137 637.639C373.998 636.964 374.043 636.247 374.271 635.487C374.499 634.727 374.85 634.106 375.326 633.625C375.813 633.138 376.381 632.821 377.029 632.674C377.686 632.53 378.376 632.567 379.1 632.784C379.798 632.993 380.374 633.331 380.828 633.798C381.282 634.266 381.578 634.822 381.716 635.468C381.856 636.104 381.819 636.78 381.605 637.495ZM380.154 636.534C380.314 635.968 380.248 635.456 379.956 634.999C379.665 634.541 379.229 634.225 378.647 634.051C378.12 633.893 377.618 633.927 377.14 634.155C376.666 634.373 376.307 634.757 376.064 635.308L380.154 636.534Z" fill="#968BA2"/>
</g>
<path fill-rule="evenodd" clip-rule="evenodd" d="M429.372 104.222C444.41 130.27 477.742 139.18 503.821 124.123C529.9 109.066 538.85 75.7448 523.811 49.697C508.773 23.6493 475.44 14.7393 449.362 29.7959C423.283 44.8525 414.333 78.1741 429.372 104.222ZM428.809 104.546C444.027 130.904 477.756 139.92 504.145 124.684C530.535 109.449 539.591 75.7303 524.373 49.3725C509.156 23.0147 475.427 13.9986 449.037 29.2344C422.648 44.4703 413.592 78.1886 428.809 104.546Z" fill="#ACDDF0"/>
<path d="M462.778 43.5644L458.536 40.6765L457.284 41.2831L459.221 45.2868L457.58 46.0818L452.735 36.0726L456.191 34.399C456.959 34.0271 457.672 33.8477 458.33 33.8609C458.998 33.8694 459.571 34.0365 460.049 34.3622C460.536 34.6833 460.914 35.1223 461.184 35.6791C461.5 36.332 461.596 37.0203 461.472 37.7439C461.353 38.4533 460.947 39.0945 460.252 39.6678L464.737 42.6161L462.778 43.5644ZM456.649 39.9726L458.464 39.094C459.078 38.7964 459.465 38.4197 459.623 37.9637C459.791 37.503 459.75 37.0135 459.499 36.495C459.248 35.9765 458.899 35.6477 458.452 35.5084C458.001 35.3595 457.464 35.4362 456.84 35.7384L455.025 36.617L456.649 39.9726Z" fill="#9BA0B7"/>
<path d="M467.916 37.2288C467.826 36.3481 467.926 35.5495 468.217 34.833C468.518 34.1153 468.963 33.5384 469.551 33.102C470.148 32.654 470.828 32.3903 471.592 32.3111C472.282 32.2395 472.896 32.3153 473.433 32.5384C473.98 32.7497 474.428 33.041 474.778 33.4123L474.647 32.139L476.477 31.9491L477.379 40.7191L475.549 40.909L475.414 39.6039C475.149 40.0496 474.766 40.4379 474.264 40.7689C473.761 41.0998 473.171 41.3005 472.492 41.3709C471.739 41.4491 471.029 41.3296 470.364 41.0126C469.698 40.6849 469.144 40.1955 468.701 39.5443C468.269 38.8814 468.007 38.1096 467.916 37.2288ZM475.097 36.516C475.035 35.9112 474.853 35.3992 474.553 34.9799C474.263 34.5596 473.904 34.2536 473.477 34.062C473.05 33.8704 472.603 33.7988 472.136 33.8472C471.669 33.8956 471.247 34.0575 470.867 34.3328C470.487 34.5974 470.193 34.9658 469.984 35.4379C469.785 35.8982 469.716 36.4308 469.778 37.0357C469.84 37.6405 470.017 38.1584 470.308 38.5893C470.61 39.0192 470.974 39.3352 471.403 39.5375C471.84 39.728 472.287 39.7996 472.744 39.7523C473.21 39.7038 473.633 39.542 474.013 39.2667C474.392 38.9914 474.68 38.6183 474.879 38.1473C475.086 37.6646 475.159 37.1209 475.097 36.516Z" fill="#9BA0B7"/>
<path d="M485.541 34.4323C485.896 34.05 486.314 33.7847 486.793 33.6364C487.285 33.4798 487.828 33.4651 488.422 33.5923L488.025 35.4381L487.572 35.3411C486.873 35.1916 486.303 35.2551 485.861 35.5315C485.43 35.8102 485.121 36.3876 484.932 37.2636L483.956 41.8L482.173 41.4185L484.027 32.7993L485.811 33.1808L485.541 34.4323Z" fill="#9BA0B7"/>
<path d="M500.827 44.0682C500.664 44.356 500.498 44.6055 500.33 44.8166L494.464 41.5058C494.163 42.1447 494.113 42.7652 494.311 43.3673C494.51 43.9693 494.906 44.4381 495.501 44.7737C496.355 45.256 497.161 45.2394 497.919 44.7237L499.633 45.691C499.001 46.2655 498.25 46.6072 497.38 46.7161C496.524 46.821 495.645 46.6191 494.744 46.1106C494.011 45.6964 493.443 45.1617 493.042 44.5064C492.655 43.8472 492.462 43.1261 492.464 42.3431C492.48 41.5562 492.712 40.7681 493.158 39.979C493.605 39.1898 494.154 38.5873 494.806 38.1714C495.473 37.7514 496.186 37.5415 496.946 37.5416C497.715 37.547 498.475 37.762 499.228 38.1866C499.952 38.5956 500.509 39.1178 500.897 39.7533C501.285 40.3887 501.474 41.0834 501.464 41.8373C501.459 42.5818 501.247 43.3255 500.827 44.0682ZM499.452 42.631C499.774 42.0409 499.83 41.4541 499.621 40.8706C499.412 40.2871 499.005 39.825 498.402 39.4842C497.854 39.1749 497.285 39.0865 496.695 39.2191C496.111 39.3424 495.613 39.6802 495.203 40.2324L499.452 42.631Z" fill="#9BA0B7"/>
<path d="M510.665 64.0529L511.201 62.1822C510.476 61.9745 509.844 61.6602 509.306 61.2392C508.777 60.813 508.323 60.2595 507.945 59.5786C507.563 58.8883 507.345 58.2101 507.292 57.5438C507.24 56.8776 507.358 56.2758 507.645 55.7382C507.942 55.1955 508.388 54.7586 508.985 54.4274C509.657 54.0549 510.36 53.9149 511.094 54.0076C511.838 54.0951 512.574 54.4313 513.3 55.0161C513.477 54.5644 513.674 54.2051 513.892 53.9379C514.119 53.6656 514.405 53.4337 514.75 53.2422C515.179 53.0042 515.621 52.8993 516.076 52.9276C516.536 52.9652 516.978 53.1348 517.401 53.4366C517.825 53.7384 518.186 54.1597 518.487 54.7008C518.792 55.2511 518.943 55.777 518.941 56.2784C518.953 56.784 518.829 57.231 518.568 57.6194C518.313 58.0171 517.952 58.3214 517.483 58.5325L516.598 56.9374C516.949 56.7553 517.168 56.5239 517.256 56.2432C517.354 55.9573 517.317 55.6604 517.147 55.3526C516.976 55.0448 516.743 54.8447 516.448 54.7523C516.167 54.6641 515.896 54.6924 515.635 54.8373C515.383 54.977 515.17 55.1866 514.996 55.4663C514.836 55.75 514.661 56.1825 514.471 56.7636L513.339 60.7584L515.527 60.8437L516.481 62.5647L513.628 62.5007L512.86 62.4692L511.821 66.1377L510.665 64.0529ZM509.303 58.8257C509.789 59.7025 510.577 60.2775 511.668 60.5507L512.829 56.5403C511.78 55.6828 510.812 55.4999 509.926 55.9914C509.45 56.2553 509.148 56.655 509.018 57.1906C508.897 57.721 508.992 58.266 509.303 58.8257Z" fill="#9BA0B7"/>
<path d="M522.503 77.9551L519.241 77.8514L519.114 81.6895L517.627 81.6423L517.753 77.8042L514.347 77.696L514.205 82.0138L512.718 81.9666L512.92 75.8256L524.05 76.1792L523.848 82.3202L522.361 82.2729L522.503 77.9551Z" fill="#9BA0B7"/>
<path d="M514.532 92.2598L509.364 93.4243L510.066 91.4833L513.529 90.7074L511.324 88.0077L511.972 86.2172L515.082 90.3657L520.265 89.2066L519.563 91.1476L516.1 91.9235L518.305 94.6233L517.657 96.4138L514.532 92.2598Z" fill="#9BA0B7"/>
<path d="M510.748 99.8728C511.458 100.437 511.967 101.073 512.275 101.782C512.585 102.505 512.684 103.238 512.571 103.979C512.458 104.72 512.139 105.421 511.614 106.08C510.949 106.914 510.201 107.444 509.368 107.667C508.537 107.906 507.678 107.829 506.79 107.437L508.016 105.898C508.458 106.045 508.885 106.057 509.296 105.934C509.708 105.811 510.079 105.541 510.412 105.124C510.877 104.54 511.04 103.907 510.902 103.224C510.765 102.557 510.325 101.928 509.582 101.337C508.839 100.747 508.122 100.456 507.432 100.467C506.736 100.485 506.155 100.787 505.69 101.371C505.032 102.197 504.96 103.032 505.474 103.877L504.248 105.416C503.706 104.658 503.446 103.838 503.467 102.956C503.496 102.08 503.836 101.233 504.488 100.415C505.012 99.7557 505.624 99.2877 506.321 99.011C507.027 98.7409 507.764 98.6722 508.531 98.8049C509.299 98.9526 510.038 99.3086 510.748 99.8728Z" fill="#9BA0B7"/>
<path d="M503.693 117.261L496.83 107.613L498.317 106.556L505.18 116.204L503.693 117.261Z" fill="#9BA0B7"/>
<path d="M486.791 121.702L483.966 113.351L485.693 112.766L486.027 113.751C486.183 113.315 486.45 112.921 486.826 112.568C487.195 112.229 487.628 111.976 488.123 111.808C488.779 111.586 489.417 111.522 490.034 111.617C490.642 111.716 491.188 111.981 491.672 112.414C492.146 112.851 492.512 113.448 492.768 114.206L494.429 119.116L492.717 119.696L491.143 115.043C490.89 114.295 490.508 113.783 489.997 113.505C489.49 113.237 488.913 113.213 488.267 113.432C487.62 113.651 487.176 114.021 486.936 114.541C486.689 115.075 486.692 115.716 486.945 116.464L488.519 121.117L486.791 121.702Z" fill="#9BA0B7"/>
<path d="M475.569 113.756C476.263 113.763 476.885 113.892 477.437 114.143C477.978 114.404 478.406 114.749 478.722 115.179C479.037 115.62 479.202 116.107 479.218 116.64L477.33 116.622C477.302 116.248 477.13 115.932 476.812 115.673C476.484 115.424 476.075 115.297 475.585 115.292C475.073 115.287 474.677 115.379 474.397 115.569C474.107 115.768 473.961 116.023 473.957 116.332C473.954 116.663 474.111 116.91 474.429 117.073C474.737 117.236 475.231 117.417 475.911 117.616C476.57 117.804 477.107 117.985 477.521 118.16C477.935 118.334 478.295 118.599 478.601 118.954C478.895 119.309 479.04 119.775 479.033 120.351C479.028 120.82 478.885 121.245 478.603 121.627C478.322 122.019 477.924 122.324 477.409 122.543C476.884 122.762 476.286 122.868 475.614 122.861C474.611 122.851 473.809 122.587 473.207 122.069C472.593 121.562 472.27 120.871 472.237 119.996L474.061 120.014C474.089 120.409 474.245 120.725 474.531 120.962C474.816 121.2 475.204 121.321 475.695 121.326C476.175 121.331 476.544 121.244 476.802 121.065C477.06 120.886 477.19 120.647 477.193 120.349C477.196 120.114 477.113 119.916 476.944 119.754C476.775 119.592 476.568 119.462 476.324 119.364C476.08 119.276 475.718 119.161 475.24 119.017C474.602 118.84 474.081 118.659 473.678 118.474C473.264 118.299 472.909 118.04 472.614 117.695C472.319 117.351 472.17 116.896 472.165 116.331C472.171 115.829 472.314 115.383 472.596 114.991C472.877 114.599 473.275 114.293 473.79 114.075C474.293 113.855 474.887 113.749 475.569 113.756Z" fill="#9BA0B7"/>
<path d="M463.605 122.119C463.923 122.21 464.159 122.394 464.312 122.671C464.465 122.948 464.496 123.245 464.405 123.563C464.313 123.881 464.129 124.116 463.852 124.27C463.574 124.423 463.277 124.455 462.959 124.364C462.651 124.275 462.421 124.093 462.267 123.816C462.114 123.539 462.083 123.242 462.175 122.924C462.266 122.606 462.451 122.37 462.728 122.217C463.005 122.063 463.298 122.031 463.605 122.119ZM463.067 120.749L465.507 112.277L467.26 112.78L464.82 121.252L463.067 120.749Z" fill="#9BA0B7"/>
<path d="M455.953 109.643L450.016 114.401L448.376 113.373L455.912 107.691L457.756 108.847L455.9 118.089L454.246 117.052L455.953 109.643Z" fill="#9BA0B7"/>
<path d="M441.209 99.3229C441.467 99.1166 441.714 98.947 441.949 98.814L446.153 104.077C446.669 103.597 446.948 103.04 446.989 102.407C447.03 101.774 446.837 101.191 446.411 100.657C445.798 99.8906 445.045 99.605 444.15 99.8006L442.922 98.2629C443.722 97.9656 444.546 97.929 445.394 98.153C446.226 98.3754 446.966 98.8908 447.611 99.6993C448.137 100.358 448.464 101.066 448.591 101.824C448.704 102.58 448.613 103.321 448.319 104.047C448.01 104.771 447.502 105.416 446.793 105.982C446.084 106.547 445.35 106.901 444.59 107.044C443.815 107.185 443.075 107.113 442.371 106.829C441.66 106.537 441.035 106.053 440.495 105.378C439.976 104.728 439.655 104.036 439.533 103.301C439.41 102.566 439.494 101.851 439.785 101.155C440.067 100.466 440.542 99.8552 441.209 99.3229ZM441.947 101.17C441.428 101.597 441.157 102.121 441.133 102.741C441.109 103.36 441.313 103.941 441.746 104.483C442.139 104.974 442.633 105.269 443.23 105.366C443.818 105.47 444.405 105.342 444.992 104.983L441.947 101.17Z" fill="#9BA0B7"/>
<path d="M435.816 82.7012L439.733 78.1666L440.009 80.6152L436.606 84.2863L440.374 83.8588L440.578 85.6715L428.814 87.0062L428.61 85.1935L435.446 84.418L431.256 81.6726L430.974 79.1604L435.816 82.7012Z" fill="#9BA0B7"/>
<path d="M433.989 66.3946L433.607 67.9815L440.734 69.6863L440.304 71.4754L433.177 69.7706L432.934 70.7818L431.487 70.4356L431.73 69.4244L431.123 69.2792C430.138 69.0435 429.484 68.613 429.163 67.9877C428.834 67.3495 428.804 66.4704 429.073 65.3503L430.551 65.7039C430.422 66.2432 430.434 66.6466 430.589 66.914C430.734 67.179 431.055 67.371 431.553 67.4901L432.16 67.6353L432.542 66.0485L433.989 66.3946Z" fill="#9BA0B7"/>
<path d="M438.563 52.256C438.914 51.6832 439.349 51.2491 439.868 50.9539C440.393 50.6496 440.974 50.5176 441.613 50.5581C442.257 50.5895 442.92 50.814 443.602 51.2315L448.037 53.9457L447.092 55.487L442.889 52.9148C442.215 52.5028 441.598 52.3564 441.037 52.4757C440.467 52.5895 440.003 52.9373 439.646 53.5193C439.289 54.1012 439.187 54.6763 439.339 55.2446C439.487 55.7981 439.898 56.2809 440.571 56.6929L444.775 59.2651L443.821 60.82L433.722 54.6401L434.676 53.0851L438.129 55.198C437.972 54.7395 437.93 54.2573 438.002 53.7514C438.081 53.2364 438.267 52.738 438.563 52.256Z" fill="#9BA0B7"/>
<ellipse cx="476.996" cy="77.6618" rx="29.1749" ry="29.2097" transform="rotate(60 476.996 77.6618)" fill="#4F96B0"/>
<path d="M495.266 67.1137L484.059 79.0937L486.316 93.804L474.706 84.4937L458.727 88.2096L469.934 76.2297L467.677 61.5194L479.287 70.8297L495.266 67.1137Z" fill="white"/>
<defs>
<filter id="filter0_b_1_152" x="-10" y="155" width="320" height="429" filterUnits="userSpaceOnUse" color-interpolation-filters="sRGB">
<feFlood flood-opacity="0" result="BackgroundImageFix"/>
<feGaussianBlur in="BackgroundImageFix" stdDeviation="5"/>
<feComposite in2="SourceAlpha" operator="in" result="effect1_backgroundBlur_1_152"/>
<feBlend mode="normal" in="SourceGraphic" in2="effect1_backgroundBlur_1_152" result="shape"/>
</filter>
<filter id="filter1_b_1_152" x="-10" y="155" width="320" height="429" filterUnits="userSpaceOnUse" color-interpolation-filters="sRGB">
<feFlood flood-opacity="0" result="BackgroundImageFix"/>
<feGaussianBlur in="BackgroundImageFix" stdDeviation="5"/>
<feComposite in2="SourceAlpha" operator="in" result="effect1_backgroundBlur_1_152"/>
<feBlend mode="normal" in="SourceGraphic" in2="effect1_backgroundBlur_1_152" result="shape"/>
</filter>
<filter id="filter2_b_1_152" x="258.916" y="232.916" width="416.977" height="474.083" filterUnits="userSpaceOnUse" color-interpolation-filters="sRGB">
<feFlood flood-opacity="0" result="BackgroundImageFix"/>
<feGaussianBlur in="BackgroundImageFix" stdDeviation="5"/>
<feComposite in2="SourceAlpha" operator="in" result="effect1_backgroundBlur_1_152"/>
<feBlend mode="normal" in="SourceGraphic" in2="effect1_backgroundBlur_1_152" result="shape"/>
</filter>
<filter id="filter3_b_1_152" x="258.916" y="232.916" width="416.977" height="468.98" filterUnits="userSpaceOnUse" color-interpolation-filters="sRGB">
<feFlood flood-opacity="0" result="BackgroundImageFix"/>
<feGaussianBlur in="BackgroundImageFix" stdDeviation="5"/>
<feComposite in2="SourceAlpha" operator="in" result="effect1_backgroundBlur_1_152"/>
<feBlend mode="normal" in="SourceGraphic" in2="effect1_backgroundBlur_1_152" result="shape"/>
</filter>
<linearGradient id="paint0_linear_1_152" x1="454.836" y1="143.365" x2="343.825" y2="900.765" gradientUnits="userSpaceOnUse">
<stop stop-color="#15BFFD"/>
<stop offset="1" stop-color="#9C37FD"/>
</linearGradient>
<linearGradient id="paint1_linear_1_152" x1="267" y1="535.5" x2="-9.51813e-07" y2="165" gradientUnits="userSpaceOnUse">
<stop stop-color="#15BFFD"/>
<stop offset="1" stop-color="#9C37FD"/>
</linearGradient>
<linearGradient id="paint2_linear_1_152" x1="531.811" y1="670.566" x2="382.444" y2="239" gradientUnits="userSpaceOnUse">
<stop stop-color="#15BFFD"/>
<stop offset="1" stop-color="#9C37FD"/>
</linearGradient>
<clipPath id="clip0_1_152">
<rect width="16" height="16" fill="white" transform="translate(16 209)"/>
</clipPath>
<clipPath id="clip1_1_152">
<rect width="16" height="16" fill="white" transform="translate(385.136 285.741) rotate(16.6874)"/>
</clipPath>
</defs>
</svg>
